<svg width="191" height="191" viewBox="0 0 191 191" fill="none" xmlns="http://www.w3.org/2000/svg">
<circle cx="95.6096" cy="95.5637" r="94.6975" fill="#D3B3A7"/>
<circle cx="94.1307" cy="95.0695" r="84.34" fill="#EDC9BC"/>
<circle cx="94.8347" cy="94.3691" r="64.3635" fill="white" stroke="#6F5773" stroke-width="2"/>
<circle cx="96.9345" cy="90.9364" r="17.7558" fill="#F8DAD0" fill-opacity="0.76"/>
<rect x="92.3809" y="35.6104" width="4.217" height="8.43399" fill="#E95850" fill-opacity="0.72"/>
<rect x="67.078" y="42.5847" width="4.217" height="8.43399" transform="rotate(-40.6917 67.078 42.5847)" fill="#46274C" fill-opacity="0.78"/>
<rect x="47.3996" y="59.4475" width="4.217" height="8.43399" transform="rotate(-40.6917 47.3996 59.4475)" fill="#46274C" fill-opacity="0.78"/>
<rect x="36.3643" y="90.8457" width="4.217" height="8.43399" transform="rotate(-92.8831 36.3643 90.8457)" fill="#E95850" fill-opacity="0.72"/>
<rect x="45.4161" y="122.377" width="4.217" height="8.43399" transform="rotate(-122.01 45.4161 122.377)" fill="#46274C" fill-opacity="0.78"/>
<rect x="68.1836" y="146.214" width="4.217" height="8.43399" transform="rotate(-158.306 68.1836 146.214)" fill="#46274C" fill-opacity="0.78"/>
<rect x="99.3726" y="152.781" width="4.217" height="8.43399" transform="rotate(-179.467 99.3726 152.781)" fill="#E95850" fill-opacity="0.72"/>
<rect x="131.746" y="140.748" width="4.217" height="8.43399" transform="rotate(143.022 131.746 140.748)" fill="#46274C" fill-opacity="0.78"/>
<rect x="150.214" y="114.504" width="4.217" height="8.43399" transform="rotate(96.0975 150.214 114.504)" fill="#46274C" fill-opacity="0.78"/>
<rect x="153.222" y="91.3279" width="4.217" height="8.43399" transform="rotate(96.0975 153.222 91.3279)" fill="#E95850" fill-opacity="0.72"/>
<rect x="143.029" y="62.3196" width="4.217" height="8.43399" transform="rotate(56.9694 143.029 62.3196)" fill="#46274C" fill-opacity="0.78"/>
<rect x="116.604" y="42.6431" width="4.217" height="8.43399" transform="rotate(21.862 116.604 42.6431)" fill="#46274C" fill-opacity="0.78"/>
<path d="M95.8925 92.5388L59.3452 67.2368C71.9962 73.5623 97.5793 87.3378 98.7039 91.836C99.8284 96.3341 98.2353 117.138 97.2982 126.978L95.8925 92.5388Z" fill="#6F5773"/>
</svg>
